<?xml version="1.0" encoding="UTF-8"?>
<svg id="b" data-name="Layer 2" xmlns="http://www.w3.org/2000/svg" xmlns:xlink="http://www.w3.org/1999/xlink" viewBox="0 0 2920.336 795.318">
  <defs>
    <clipPath id="e">
      <rect x=".285" width="2920.051" height="795.318" fill="none"/>
    </clipPath>
  </defs>
  <g id="c" data-name="b">
    <g id="d" data-name="c">
      <g clip-path="url(#e)">
        <g>
          <path d="M724.169,639.854V41.448h111.201v499.64h280.542v98.766h-391.743,0Z" fill="#ededff"/>
          <path d="M1163.042,639.85V209.098h104.594v430.753h-104.594ZM1158.908,146.85V37.294h113.708v109.556h-113.708Z" fill="#ededff"/>
          <path d="M1534.388,646.488c-128.65,0-205.833-91.295-205.833-222.428s77.996-221.602,204.139-221.602c53.127,0,99.613,22.409,124.516,55.608v-48.968h104.56v585.956h-104.56v-205.833c-19.923,32.371-67.222,57.267-122.822,57.267h0ZM1549.33,556.023c68.882,0,114.521-52.287,114.521-131.963,0-78.847-45.639-131.136-114.521-131.136s-114.555,52.289-114.555,131.136,45.639,131.963,114.555,131.963Z" fill="#ededff"/>
          <path d="M2239.403,209.099v430.752h-104.594v-66.395c-28.224,43.986-77.996,73.036-137.764,73.036-93.785,0-156.874-61.418-156.874-155.203V209.099h104.594v258.12c0,50.626,32.357,86.318,82.977,86.318,67.222,0,107.067-58.097,107.067-155.206v-189.231h104.594Z" fill="#ededff"/>
          <path d="M2321.499,639.85V209.098h104.594v430.753h-104.594ZM2317.365,146.85V37.294h113.708v109.556h-113.708Z" fill="#ededff"/>
          <path d="M2692.811,646.491c-128.65,0-205.833-91.298-205.833-222.432s78.03-221.602,204.173-221.602c53.127,0,99.579,22.409,124.482,55.608V34.804h104.594v605.046h-104.594v-50.626c-19.889,32.367-67.222,57.267-122.822,57.267h0ZM2707.754,556.023c68.882,0,114.521-52.287,114.521-131.963,0-78.847-45.639-131.136-114.521-131.136s-114.555,52.289-114.555,131.136,45.673,131.963,114.555,131.963Z" fill="#ededff"/>
          <path d="M472.63,276.814L307.116,27.374c-23.108-34.845-74.269-34.845-97.411,0L44.209,276.814c-16.422,24.28-28.823,51.5-36.25,80.708-5.198,20.434-7.959,41.841-7.959,63.895,0,142.724,115.7,258.424,258.428,258.424s258.418-115.7,258.418-258.424c0-53.571-16.297-103.335-44.216-144.602h0Z" fill="#ededff"/>
        </g>
      </g>
    </g>
  </g>
</svg>