<svg width="138" height="43" viewBox="0 0 138 43" fill="none" xmlns="http://www.w3.org/2000/svg">
<path d="M33.9043 0.0609991C36.241 -0.222041 38.6067 0.488588 40.3945 2.01217C42.1549 3.51232 43.2065 5.68489 43.2803 7.97408C43.2834 8.06523 43.2852 8.15656 43.2852 8.24459C43.2852 8.60248 43.2857 8.86164 40.4268 32.0503C40.2425 33.5411 40.1115 34.6059 40.0645 34.9926C39.8104 37.0745 38.9197 39.0038 37.5576 40.4253V40.4233C36.0058 42.0435 33.9205 42.936 31.6865 42.936C31.5917 42.936 31.496 42.9342 31.4004 42.9311C28.383 42.8298 25.6623 41.067 24.2979 38.3325L24.2871 38.313C22.842 35.2633 21.1811 29.1219 17.5068 25.4682C13.8323 21.8144 7.64764 20.1533 4.58008 18.7163C1.85622 17.365 0.103061 14.6762 0.00488281 11.6987C0.00174625 11.6043 0 11.5122 0 11.4233C4.05683e-05 10.7233 0.0886558 10.0263 0.262695 9.35201C1.09155 6.13723 3.90385 3.70415 7.26074 3.29635L33.9043 0.0609991ZM31.6865 29.3354C28.7446 29.3354 26.3557 31.721 26.3555 34.6401C26.3556 37.5679 28.7523 39.9448 31.6865 39.9448C34.6205 39.9445 37.0253 37.5591 37.0254 34.6401C37.0252 31.7211 34.6291 29.3357 31.6865 29.3354ZM8.40332 6.1694C5.46936 6.16959 3.06467 8.55509 3.06445 11.4741C3.06457 14.4017 5.46067 16.7786 8.40332 16.7788C11.3461 16.7788 13.7343 14.3933 13.7344 11.4741C13.7342 8.55497 11.3374 6.1694 8.40332 6.1694ZM34.8838 2.99166C31.9418 2.99166 29.553 5.37724 29.5527 8.29635C29.5529 11.2241 31.9496 13.601 34.8838 13.601C37.8178 13.6008 40.2225 11.2154 40.2227 8.29635C40.2224 5.37739 37.8263 2.99191 34.8838 2.99166Z" fill="url(#paint0_linear_2_1420)"/>
<path d="M62.1454 31.4678V10.4678H65.1454V19.5278L73.5454 10.4678H77.2954L68.8654 19.4378L77.4454 31.4678H73.7254L66.5254 21.3878L65.1454 22.8878V31.4678H62.1454ZM78.4328 31.4678V16.5878H81.4328V31.4678H78.4328ZM79.9328 13.7678C79.3728 13.7678 78.9028 13.5878 78.5228 13.2278C78.1428 12.8478 77.9528 12.3878 77.9528 11.8478C77.9528 11.3078 78.1328 10.8578 78.4928 10.4978C78.8728 10.1378 79.3528 9.95777 79.9328 9.95777C80.4928 9.95777 80.9628 10.1378 81.3428 10.4978C81.7228 10.8578 81.9128 11.3078 81.9128 11.8478C81.9128 12.3878 81.7228 12.8478 81.3428 13.2278C80.9628 13.5878 80.4928 13.7678 79.9328 13.7678ZM89.8727 31.4678C88.9127 31.4678 88.0827 31.3178 87.3827 31.0178C86.6827 30.7178 86.1427 30.2178 85.7627 29.5178C85.3827 28.8178 85.1927 27.8678 85.1927 26.6678V19.0178H82.6427V16.5878H85.1927L85.5527 12.8678H88.1927V16.5878H92.4527V19.0178H88.1927V26.6978C88.1927 27.5778 88.3727 28.1778 88.7327 28.4978C89.0927 28.8178 89.7127 28.9778 90.5927 28.9778H92.2727V31.4678H89.8727ZM99.9918 31.8278C98.5518 31.8278 97.2718 31.5078 96.1518 30.8678C95.0318 30.2078 94.1518 29.2978 93.5118 28.1378C92.8718 26.9778 92.5518 25.6178 92.5518 24.0578C92.5518 22.4978 92.8618 21.1378 93.4818 19.9778C94.1218 18.7978 95.0018 17.8778 96.1218 17.2178C97.2418 16.5578 98.5518 16.2278 100.052 16.2278C101.512 16.2278 102.772 16.5578 103.832 17.2178C104.912 17.8578 105.742 18.7078 106.322 19.7678C106.902 20.8278 107.192 22.0078 107.192 23.3078C107.192 23.5078 107.192 23.7278 107.192 23.9678C107.192 24.2078 107.182 24.4578 107.162 24.7178H94.7418V22.6178H104.192C104.132 21.3778 103.712 20.4078 102.932 19.7078C102.152 19.0078 101.182 18.6578 100.022 18.6578C99.2018 18.6578 98.4418 18.8378 97.7418 19.1978C97.0618 19.5578 96.5118 20.0878 96.0918 20.7878C95.6918 21.4878 95.4918 22.3778 95.4918 23.4578V24.2978C95.4918 25.3978 95.6918 26.3278 96.0918 27.0878C96.5118 27.8278 97.0618 28.3878 97.7418 28.7678C98.4418 29.1478 99.1918 29.3378 99.9918 29.3378C100.932 29.3378 101.722 29.1278 102.362 28.7078C103.002 28.2678 103.472 27.6778 103.772 26.9378H106.772C106.512 27.8778 106.072 28.7178 105.452 29.4578C104.832 30.1778 104.062 30.7578 103.142 31.1978C102.242 31.6178 101.192 31.8278 99.9918 31.8278ZM112.828 31.4678L120.268 10.4678H124.108L131.518 31.4678H128.338L122.218 13.4978H122.158L115.978 31.4678H112.828ZM116.308 25.8278L117.148 23.4278H127.018L127.858 25.8278H116.308ZM132.276 31.4678V10.4678H135.276V31.4678H132.276Z" fill="white"/>
<defs>
<linearGradient id="paint0_linear_2_1420" x1="9.15" y1="28.8" x2="36.75" y2="-3.6" gradientUnits="userSpaceOnUse">
<stop stop-color="white"/>
<stop offset="1" stop-color="white"/>
</linearGradient>
</defs>
</svg>
