<svg width="138" height="43" viewBox="0 0 138 43" fill="none" xmlns="http://www.w3.org/2000/svg">
<path d="M37.558 40.425C38.9201 39.0036 39.8101 37.0745 40.0641 34.9927C40.1112 34.6059 40.2421 33.5416 40.4264 32.0508C43.2854 8.86173 43.2854 8.60287 43.2854 8.24497C43.2854 8.15686 43.2838 8.06563 43.2807 7.97441C43.207 5.68513 42.1547 3.51282 40.3943 2.01262C38.6064 0.489041 36.2414 -0.222068 33.9047 0.060972L7.26036 3.29605C3.90345 3.70385 1.09152 6.13737 0.262687 9.35218C0.088608 10.0266 0 10.7237 0 11.4239C0 11.5128 0.00156828 11.604 0.00470485 11.6984C0.102723 14.6761 1.85606 17.3654 4.58017 18.7167C7.64773 20.1537 13.8323 21.8145 17.5067 25.4683C21.1812 29.1221 22.842 35.264 24.2872 38.3135L24.2974 38.333C25.6618 41.0675 28.3828 42.8297 31.4002 42.9311C31.4958 42.9342 31.5915 42.9357 31.6864 42.9357C33.9204 42.9357 36.0054 42.0437 37.5572 40.4235L37.558 40.425Z" fill="url(#paint0_linear_2_1403)"/>
<path opacity="0.4" d="M26.355 34.6404C26.355 37.5683 28.7513 39.9449 31.6856 39.9449C34.6198 39.9449 37.0248 37.5597 37.0248 34.6404C37.0248 31.7211 34.6285 29.3359 31.6856 29.3359C28.7435 29.3359 26.355 31.7211 26.355 34.6404Z" fill="white"/>
<path opacity="0.4" d="M29.5524 8.29666C29.5524 11.2245 31.9488 13.6011 34.883 13.6011C37.8173 13.6011 40.2222 11.216 40.2222 8.29666C40.2222 5.37737 37.8259 2.99219 34.883 2.99219C31.9409 2.99219 29.5524 5.37737 29.5524 8.29666Z" fill="white"/>
<path opacity="0.4" d="M3.06396 11.4754C3.06396 14.4032 5.4603 16.7798 8.40318 16.7798C11.3461 16.7798 13.7338 14.3947 13.7338 11.4754C13.7338 8.55608 11.3374 6.1709 8.40318 6.1709C5.46893 6.1709 3.06396 8.55608 3.06396 11.4754Z" fill="white"/>
<path d="M62.1454 31.4678V10.4678H65.1454V19.5278L73.5454 10.4678H77.2954L68.8654 19.4378L77.4454 31.4678H73.7254L66.5254 21.3878L65.1454 22.8878V31.4678H62.1454ZM78.4328 31.4678V16.5878H81.4328V31.4678H78.4328ZM79.9328 13.7678C79.3728 13.7678 78.9028 13.5878 78.5228 13.2278C78.1428 12.8478 77.9528 12.3878 77.9528 11.8478C77.9528 11.3078 78.1328 10.8578 78.4928 10.4978C78.8728 10.1378 79.3528 9.95777 79.9328 9.95777C80.4928 9.95777 80.9628 10.1378 81.3428 10.4978C81.7228 10.8578 81.9128 11.3078 81.9128 11.8478C81.9128 12.3878 81.7228 12.8478 81.3428 13.2278C80.9628 13.5878 80.4928 13.7678 79.9328 13.7678ZM89.8727 31.4678C88.9127 31.4678 88.0827 31.3178 87.3827 31.0178C86.6827 30.7178 86.1427 30.2178 85.7627 29.5178C85.3827 28.8178 85.1927 27.8678 85.1927 26.6678V19.0178H82.6427V16.5878H85.1927L85.5527 12.8678H88.1927V16.5878H92.4527V19.0178H88.1927V26.6978C88.1927 27.5778 88.3727 28.1778 88.7327 28.4978C89.0927 28.8178 89.7127 28.9778 90.5927 28.9778H92.2727V31.4678H89.8727ZM99.9918 31.8278C98.5518 31.8278 97.2718 31.5078 96.1518 30.8678C95.0318 30.2078 94.1518 29.2978 93.5118 28.1378C92.8718 26.9778 92.5518 25.6178 92.5518 24.0578C92.5518 22.4978 92.8618 21.1378 93.4818 19.9778C94.1218 18.7978 95.0018 17.8778 96.1218 17.2178C97.2418 16.5578 98.5518 16.2278 100.052 16.2278C101.512 16.2278 102.772 16.5578 103.832 17.2178C104.912 17.8578 105.742 18.7078 106.322 19.7678C106.902 20.8278 107.192 22.0078 107.192 23.3078C107.192 23.5078 107.192 23.7278 107.192 23.9678C107.192 24.2078 107.182 24.4578 107.162 24.7178H94.7418V22.6178H104.192C104.132 21.3778 103.712 20.4078 102.932 19.7078C102.152 19.0078 101.182 18.6578 100.022 18.6578C99.2018 18.6578 98.4418 18.8378 97.7418 19.1978C97.0618 19.5578 96.5118 20.0878 96.0918 20.7878C95.6918 21.4878 95.4918 22.3778 95.4918 23.4578V24.2978C95.4918 25.3978 95.6918 26.3278 96.0918 27.0878C96.5118 27.8278 97.0618 28.3878 97.7418 28.7678C98.4418 29.1478 99.1918 29.3378 99.9918 29.3378C100.932 29.3378 101.722 29.1278 102.362 28.7078C103.002 28.2678 103.472 27.6778 103.772 26.9378H106.772C106.512 27.8778 106.072 28.7178 105.452 29.4578C104.832 30.1778 104.062 30.7578 103.142 31.1978C102.242 31.6178 101.192 31.8278 99.9918 31.8278ZM112.828 31.4678L120.268 10.4678H124.108L131.518 31.4678H128.338L122.218 13.4978H122.158L115.978 31.4678H112.828ZM116.308 25.8278L117.148 23.4278H127.018L127.858 25.8278H116.308ZM132.276 31.4678V10.4678H135.276V31.4678H132.276Z" fill="black"/>
<defs>
<linearGradient id="paint0_linear_2_1403" x1="9.15" y1="28.8" x2="36.75" y2="-3.6" gradientUnits="userSpaceOnUse">
<stop stop-color="#9B8564"/>
<stop offset="1" stop-color="#DBD5C7"/>
</linearGradient>
</defs>
</svg>
